<?xml version="1.0" standalone="no"?><!DOCTYPE svg PUBLIC "-//W3C//DTD SVG 1.1//EN" "http://www.w3.org/Graphics/SVG/1.1/DTD/svg11.dtd"><svg t="1564019014336" class="icon" viewBox="0 0 1024 1024" version="1.1" xmlns="http://www.w3.org/2000/svg" p-id="9959" xmlns:xlink="http://www.w3.org/1999/xlink" width="200" height="200"><defs><style type="text/css"></style></defs><path d="M267.264 226.304a384.6656 384.6656 0 0 1 252.416-94.208c17.408 0 34.816 1.536 51.712 3.584 6.656 23.552 28.16 40.96 54.272 40.96 30.72 0 56.32-25.088 56.32-56.32s-25.6-56.32-56.32-56.32c-15.36 0-29.696 6.144-39.424 16.384-22.016-3.072-44.032-5.12-66.56-5.12-106.496 0-208.896 38.4-289.28 107.52-79.36 69.12-132.096 163.84-147.968 267.264l56.32 8.704C152.064 368.64 198.144 286.208 267.264 226.304z m252.416 677.376c-88.576 0-175.616-30.72-244.224-87.04-54.272-44.544-95.232-102.912-119.296-168.448 10.752-10.24 17.92-25.088 17.92-41.472 0-30.72-25.088-56.32-56.32-56.32s-56.32 25.088-56.32 56.32c0 25.088 16.384 46.08 38.4 53.248 26.112 77.824 74.752 147.456 139.264 200.192 78.848 64.512 178.176 99.84 280.064 99.84 90.624 0 178.176-27.136 252.416-78.848l-32.256-46.592c-64.512 45.056-140.288 69.12-219.648 69.12z m442.368-385.536c0-140.288-64-268.8-176.128-353.28l-34.304 45.568c97.28 73.728 153.6 185.856 153.6 308.224 0 62.464-14.848 122.88-43.52 178.176-30.72 0-56.32 25.088-56.32 56.32s25.088 56.32 56.32 56.32 56.32-25.088 56.32-56.32c0-10.24-2.56-19.456-7.168-27.136 33.792-65.024 51.2-135.168 51.2-207.872z" p-id="9960" fill="#1afa29"></path><path d="M542.208 394.752h-48.128v145.408c0 37.888-3.072 70.656-9.728 97.792-6.656 27.648-16.896 53.248-31.232 77.824-12.8-7.68-28.16-15.36-45.568-22.016 12.288-13.312 22.528-33.28 30.208-59.904-16.384 15.36-37.888 35.84-63.488 61.952l-33.28-43.52c14.848-13.312 22.016-27.648 22.016-43.008V496.128H317.44V450.56h92.16v157.696c6.656-7.168 14.336-16.896 22.528-29.184 3.072 7.168 7.168 14.336 12.288 22.528 3.584-22.528 5.12-45.056 5.12-68.096V352.768h229.376v306.176c0 13.312-1.536 24.064-5.12 31.232-3.584 7.168-10.24 12.8-20.48 16.384-10.24 3.584-25.088 6.144-45.568 7.168-2.56-19.968-7.168-36.352-14.848-49.664 13.312 1.536 23.04 2.56 28.16 2.56s8.704-1.024 10.24-2.56c1.536-1.536 2.56-4.608 2.56-9.216V394.752h-48.64v31.232h37.888v37.376h-37.888v27.136h44.032v34.304H498.688v-34.304h43.52v-27.136h-37.376v-37.376h37.376v-31.232z m-106.496 28.16L386.56 440.32c-11.264-28.672-25.088-56.32-41.984-82.944l49.152-20.48c16.384 29.184 30.72 57.856 41.984 86.016z m145.408 214.016h-35.84v22.528h-39.424v-117.76h114.176v108.032h-38.912v-12.8z m-35.84-33.792h35.84v-27.648h-35.84v27.648z" p-id="9961" fill="#1afa29"></path></svg>